<svg width="283" height="75" viewBox="0 0 283 75" fill="none" xmlns="http://www.w3.org/2000/svg">
<path d="M0.826172 74V1.27273H20.5705V58.0909H49.9739V74H0.826172ZM125.578 37.6364C125.578 45.733 124.003 52.563 120.855 58.1264C117.706 63.6662 113.456 67.8684 108.106 70.733C102.756 73.5739 96.7897 74.9943 90.2083 74.9943C83.5795 74.9943 77.5899 73.562 72.2395 70.6974C66.9128 67.8092 62.6751 63.5952 59.5265 58.0554C56.4015 52.492 54.839 45.6856 54.839 37.6364C54.839 29.5398 56.4015 22.7216 59.5265 17.1818C62.6751 11.6184 66.9128 7.41619 72.2395 4.57528C77.5899 1.7107 83.5795 0.278406 90.2083 0.278406C96.7897 0.278406 102.756 1.7107 108.106 4.57528C113.456 7.41619 117.706 11.6184 120.855 17.1818C124.003 22.7216 125.578 29.5398 125.578 37.6364ZM105.265 37.6364C105.265 33.2803 104.685 29.6108 103.525 26.6278C102.389 23.6212 100.696 21.3485 98.4469 19.8097C96.2215 18.2472 93.4753 17.4659 90.2083 17.4659C86.9412 17.4659 84.1832 18.2472 81.9341 19.8097C79.7087 21.3485 78.016 23.6212 76.856 26.6278C75.7196 29.6108 75.1515 33.2803 75.1515 37.6364C75.1515 41.9924 75.7196 45.6738 76.856 48.6804C78.016 51.6634 79.7087 53.9361 81.9341 55.4986C84.1832 57.0374 86.9412 57.8068 90.2083 57.8068C93.4753 57.8068 96.2215 57.0374 98.4469 55.4986C100.696 53.9361 102.389 51.6634 103.525 48.6804C104.685 45.6738 105.265 41.9924 105.265 37.6364ZM181.943 25.2784C181.635 24.0237 181.15 22.9228 180.487 21.9759C179.824 21.0052 178.996 20.1884 178.001 19.5256C177.031 18.839 175.894 18.33 174.592 17.9986C173.314 17.6435 171.905 17.4659 170.366 17.4659C167.052 17.4659 164.223 18.259 161.879 19.8452C159.559 21.4313 157.783 23.7159 156.552 26.6989C155.345 29.6818 154.741 33.2803 154.741 37.4943C154.741 41.7557 155.321 45.4015 156.481 48.4318C157.641 51.4621 159.37 53.7822 161.666 55.392C163.962 57.0019 166.815 57.8068 170.224 57.8068C173.231 57.8068 175.729 57.3688 177.717 56.4929C179.729 55.617 181.233 54.3741 182.227 52.7642C183.221 51.1544 183.719 49.2604 183.719 47.0824L187.128 47.4375H170.508V33.375H202.753V43.4602C202.753 50.089 201.344 55.759 198.527 60.4702C195.733 65.1577 191.874 68.7562 186.95 71.2656C182.05 73.7514 176.427 74.9943 170.082 74.9943C163.004 74.9943 156.789 73.491 151.439 70.4844C146.088 67.4777 141.91 63.1927 138.903 57.6293C135.92 52.0658 134.429 45.4489 134.429 37.7784C134.429 31.7652 135.34 26.4384 137.163 21.7983C139.01 17.1581 141.567 13.2401 144.834 10.044C148.101 6.82434 151.877 4.39773 156.162 2.7642C160.447 1.107 165.04 0.278406 169.94 0.278406C174.249 0.278406 178.25 0.893938 181.943 2.125C185.66 3.33238 188.939 5.0606 191.78 7.30966C194.644 9.53504 196.952 12.1747 198.704 15.2287C200.456 18.2827 201.522 21.6326 201.9 25.2784H181.943ZM282.414 37.6364C282.414 45.733 280.839 52.563 277.691 58.1264C274.542 63.6662 270.292 67.8684 264.942 70.733C259.592 73.5739 253.626 74.9943 247.044 74.9943C240.415 74.9943 234.426 73.562 229.075 70.6974C223.749 67.8092 219.511 63.5952 216.362 58.0554C213.237 52.492 211.675 45.6856 211.675 37.6364C211.675 29.5398 213.237 22.7216 216.362 17.1818C219.511 11.6184 223.749 7.41619 229.075 4.57528C234.426 1.7107 240.415 0.278406 247.044 0.278406C253.626 0.278406 259.592 1.7107 264.942 4.57528C270.292 7.41619 274.542 11.6184 277.691 17.1818C280.839 22.7216 282.414 29.5398 282.414 37.6364ZM262.101 37.6364C262.101 33.2803 261.521 29.6108 260.361 26.6278C259.225 23.6212 257.532 21.3485 255.283 19.8097C253.057 18.2472 250.311 17.4659 247.044 17.4659C243.777 17.4659 241.019 18.2472 238.77 19.8097C236.545 21.3485 234.852 23.6212 233.692 26.6278C232.556 29.6108 231.987 33.2803 231.987 37.6364C231.987 41.9924 232.556 45.6738 233.692 48.6804C234.852 51.6634 236.545 53.9361 238.77 55.4986C241.019 57.0374 243.777 57.8068 247.044 57.8068C250.311 57.8068 253.057 57.0374 255.283 55.4986C257.532 53.9361 259.225 51.6634 260.361 48.6804C261.521 45.6738 262.101 41.9924 262.101 37.6364Z" fill="#4E47FF"/>
</svg>
